<?xml version="1.0" encoding="UTF-8"?>
<svg width="200" height="200" viewBox="0 0 200 200" xmlns="http://www.w3.org/2000/svg">
  <!-- 背景圆 -->
  <circle cx="100" cy="100" r="90" fill="#f5f7fa" stroke="#0071e3" stroke-width="2"/>
  
  <!-- 人体轮廓 -->
  <path d="M100,25 C95,25 90,30 90,35 C90,40 95,45 100,45 C105,45 110,40 110,35 C110,30 105,25 100,25 Z" fill="#0071e3"/> <!-- 头部 -->
  <path d="M100,45 L100,70 M85,55 L115,55" stroke="#0071e3" stroke-width="3"/> <!-- 颈部和肩膀 -->
  <path d="M85,55 L85,110 M115,55 L115,110" stroke="#0071e3" stroke-width="3"/> <!-- 手臂 -->
  <path d="M100,70 L100,130 M100,130 L85,170 M100,130 L115,170" stroke="#0071e3" stroke-width="3"/> <!-- 躯干和腿部 -->
  
  <!-- 经络线 -->
  <path d="M100,40 C90,60 80,80 90,100 C100,120 110,140 100,160" stroke="#0071e3" stroke-width="2" stroke-dasharray="4,2" fill="none"/>
  <path d="M90,40 C70,70 60,100 70,130 C80,160 90,170 85,170" stroke="#0071e3" stroke-width="2" stroke-dasharray="4,2" fill="none"/>
  <path d="M110,40 C130,70 140,100 130,130 C120,160 110,170 115,170" stroke="#0071e3" stroke-width="2" stroke-dasharray="4,2" fill="none"/>
  
  <!-- 气能量点 -->
  <circle cx="100" cy="40" r="3" fill="#F44336"/> <!-- 头部气点 -->
  <circle cx="90" cy="85" r="3" fill="#F44336"/> <!-- 左侧气点 -->
  <circle cx="110" cy="85" r="3" fill="#F44336"/> <!-- 右侧气点 -->
  <circle cx="100" cy="100" r="3" fill="#F44336"/> <!-- 腹部气点 -->
  <circle cx="95" cy="140" r="3" fill="#F44336"/> <!-- 左腿气点 -->
  <circle cx="105" cy="140" r="3" fill="#F44336"/> <!-- 右腿气点 -->
  
  <!-- 能量流动 -->
  <g>
    <animateTransform 
      attributeName="transform"
      attributeType="XML"
      type="rotate"
      from="0 100 100"
      to="360 100 100"
      dur="10s"
      repeatCount="indefinite"/>
    <path d="M60,60 C70,50 90,60 100,50 C110,40 130,50 140,60" stroke="#4CAF50" stroke-width="2" fill="none"/>
    <path d="M60,140 C70,150 90,140 100,150 C110,160 130,150 140,140" stroke="#4CAF50" stroke-width="2" fill="none"/>
  </g>
</svg> 